<mxfile host="app.diagrams.net" agent="Mozilla/5.0 (X11; Linux x86_64) AppleWebKit/537.36 (KHTML, like Gecko) Chrome/123.0.0.0 Safari/537.36" version="28.2.1">
  <diagram name="Page-1" id="O7RwCu_UajTMbYLXLgu4">
    <mxGraphModel dx="1052" dy="618" grid="1" gridSize="10" guides="1" tooltips="1" connect="1" arrows="1" fold="1" page="1" pageScale="1" pageWidth="827" pageHeight="1169" math="0" shadow="0">
      <root>
        <mxCell id="0" />
        <mxCell id="1" parent="0" />
        <mxCell id="Qt9DrXzBYzqnRA-lPwb7-15" style="edgeStyle=orthogonalEdgeStyle;rounded=0;orthogonalLoop=1;jettySize=auto;html=1;exitX=0.5;exitY=1;exitDx=0;exitDy=0;entryX=0.5;entryY=0;entryDx=0;entryDy=0;" edge="1" parent="1" source="Qt9DrXzBYzqnRA-lPwb7-5" target="Qt9DrXzBYzqnRA-lPwb7-9">
          <mxGeometry relative="1" as="geometry" />
        </mxCell>
        <mxCell id="Qt9DrXzBYzqnRA-lPwb7-5" value="start your order" style="ellipse;whiteSpace=wrap;html=1;" vertex="1" parent="1">
          <mxGeometry x="160" y="20" width="120" height="70" as="geometry" />
        </mxCell>
        <mxCell id="Qt9DrXzBYzqnRA-lPwb7-27" style="edgeStyle=orthogonalEdgeStyle;rounded=0;orthogonalLoop=1;jettySize=auto;html=1;exitX=0.5;exitY=1;exitDx=0;exitDy=0;" edge="1" parent="1" source="Qt9DrXzBYzqnRA-lPwb7-8" target="Qt9DrXzBYzqnRA-lPwb7-26">
          <mxGeometry relative="1" as="geometry" />
        </mxCell>
        <mxCell id="Qt9DrXzBYzqnRA-lPwb7-8" value="choose the items&lt;div&gt;to order and&amp;nbsp;&lt;/div&gt;&lt;div&gt;quantity&lt;/div&gt;" style="shape=parallelogram;perimeter=parallelogramPerimeter;whiteSpace=wrap;html=1;fixedSize=1;" vertex="1" parent="1">
          <mxGeometry x="160" y="220" width="120" height="50" as="geometry" />
        </mxCell>
        <mxCell id="Qt9DrXzBYzqnRA-lPwb7-16" value="" style="edgeStyle=orthogonalEdgeStyle;rounded=0;orthogonalLoop=1;jettySize=auto;html=1;" edge="1" parent="1" source="Qt9DrXzBYzqnRA-lPwb7-9" target="Qt9DrXzBYzqnRA-lPwb7-8">
          <mxGeometry relative="1" as="geometry" />
        </mxCell>
        <mxCell id="Qt9DrXzBYzqnRA-lPwb7-9" value="select the&amp;nbsp;&lt;div&gt;restaurant&amp;nbsp;&lt;/div&gt;" style="shape=parallelogram;perimeter=parallelogramPerimeter;whiteSpace=wrap;html=1;fixedSize=1;" vertex="1" parent="1">
          <mxGeometry x="170" y="110" width="120" height="60" as="geometry" />
        </mxCell>
        <mxCell id="Qt9DrXzBYzqnRA-lPwb7-29" style="edgeStyle=orthogonalEdgeStyle;rounded=0;orthogonalLoop=1;jettySize=auto;html=1;exitX=1;exitY=0.5;exitDx=0;exitDy=0;" edge="1" parent="1" source="Qt9DrXzBYzqnRA-lPwb7-11" target="Qt9DrXzBYzqnRA-lPwb7-21">
          <mxGeometry relative="1" as="geometry" />
        </mxCell>
        <mxCell id="Qt9DrXzBYzqnRA-lPwb7-31" style="edgeStyle=orthogonalEdgeStyle;rounded=0;orthogonalLoop=1;jettySize=auto;html=1;entryX=0.5;entryY=0;entryDx=0;entryDy=0;" edge="1" parent="1" source="Qt9DrXzBYzqnRA-lPwb7-11" target="Qt9DrXzBYzqnRA-lPwb7-22">
          <mxGeometry relative="1" as="geometry" />
        </mxCell>
        <mxCell id="Qt9DrXzBYzqnRA-lPwb7-11" value="payment&amp;nbsp;&lt;div&gt;mode&lt;/div&gt;" style="rhombus;whiteSpace=wrap;html=1;" vertex="1" parent="1">
          <mxGeometry x="190" y="410" width="80" height="80" as="geometry" />
        </mxCell>
        <mxCell id="Qt9DrXzBYzqnRA-lPwb7-30" style="edgeStyle=orthogonalEdgeStyle;rounded=0;orthogonalLoop=1;jettySize=auto;html=1;exitX=1;exitY=0.5;exitDx=0;exitDy=0;entryX=0;entryY=0.5;entryDx=0;entryDy=0;" edge="1" parent="1" source="Qt9DrXzBYzqnRA-lPwb7-21" target="Qt9DrXzBYzqnRA-lPwb7-23">
          <mxGeometry relative="1" as="geometry" />
        </mxCell>
        <mxCell id="Qt9DrXzBYzqnRA-lPwb7-21" value="online payment" style="rounded=0;whiteSpace=wrap;html=1;" vertex="1" parent="1">
          <mxGeometry x="350" y="420" width="120" height="60" as="geometry" />
        </mxCell>
        <mxCell id="Qt9DrXzBYzqnRA-lPwb7-33" style="edgeStyle=orthogonalEdgeStyle;rounded=0;orthogonalLoop=1;jettySize=auto;html=1;exitX=0.5;exitY=1;exitDx=0;exitDy=0;entryX=0.5;entryY=0;entryDx=0;entryDy=0;" edge="1" parent="1" source="Qt9DrXzBYzqnRA-lPwb7-22" target="Qt9DrXzBYzqnRA-lPwb7-32">
          <mxGeometry relative="1" as="geometry" />
        </mxCell>
        <mxCell id="Qt9DrXzBYzqnRA-lPwb7-22" value="offline payment" style="rounded=0;whiteSpace=wrap;html=1;" vertex="1" parent="1">
          <mxGeometry x="180" y="540" width="120" height="60" as="geometry" />
        </mxCell>
        <mxCell id="Qt9DrXzBYzqnRA-lPwb7-23" value="give card details&lt;div&gt;or upi id&lt;/div&gt;" style="rounded=0;whiteSpace=wrap;html=1;" vertex="1" parent="1">
          <mxGeometry x="530" y="420" width="120" height="60" as="geometry" />
        </mxCell>
        <mxCell id="Qt9DrXzBYzqnRA-lPwb7-28" style="edgeStyle=orthogonalEdgeStyle;rounded=0;orthogonalLoop=1;jettySize=auto;html=1;exitX=0.5;exitY=1;exitDx=0;exitDy=0;" edge="1" parent="1" source="Qt9DrXzBYzqnRA-lPwb7-26" target="Qt9DrXzBYzqnRA-lPwb7-11">
          <mxGeometry relative="1" as="geometry" />
        </mxCell>
        <mxCell id="Qt9DrXzBYzqnRA-lPwb7-26" value="add adress and&amp;nbsp;&lt;div&gt;contact details&lt;/div&gt;" style="rounded=0;whiteSpace=wrap;html=1;" vertex="1" parent="1">
          <mxGeometry x="160" y="310" width="120" height="60" as="geometry" />
        </mxCell>
        <mxCell id="Qt9DrXzBYzqnRA-lPwb7-39" style="edgeStyle=orthogonalEdgeStyle;rounded=0;orthogonalLoop=1;jettySize=auto;html=1;exitX=0.5;exitY=1;exitDx=0;exitDy=0;entryX=0.5;entryY=0;entryDx=0;entryDy=0;" edge="1" parent="1" source="Qt9DrXzBYzqnRA-lPwb7-32">
          <mxGeometry relative="1" as="geometry">
            <mxPoint x="240" y="760" as="targetPoint" />
          </mxGeometry>
        </mxCell>
        <mxCell id="Qt9DrXzBYzqnRA-lPwb7-32" value="conform your&lt;div&gt;order&lt;/div&gt;" style="rounded=0;whiteSpace=wrap;html=1;" vertex="1" parent="1">
          <mxGeometry x="180" y="650" width="120" height="60" as="geometry" />
        </mxCell>
        <mxCell id="Qt9DrXzBYzqnRA-lPwb7-46" style="edgeStyle=orthogonalEdgeStyle;rounded=0;orthogonalLoop=1;jettySize=auto;html=1;exitX=1;exitY=0.5;exitDx=0;exitDy=0;entryX=0.5;entryY=1;entryDx=0;entryDy=0;" edge="1" parent="1" source="Qt9DrXzBYzqnRA-lPwb7-41" target="Qt9DrXzBYzqnRA-lPwb7-23">
          <mxGeometry relative="1" as="geometry" />
        </mxCell>
        <mxCell id="Qt9DrXzBYzqnRA-lPwb7-41" value="Exit from application" style="ellipse;whiteSpace=wrap;html=1;" vertex="1" parent="1">
          <mxGeometry x="180" y="760" width="120" height="80" as="geometry" />
        </mxCell>
      </root>
    </mxGraphModel>
  </diagram>
</mxfile>
